<?xml version="1.0" encoding="UTF-8"?>
<svg version="1.1" xmlns="http://www.w3.org/2000/svg" width="854" height="560">
<path d="M0 0 C281.82 0 563.64 0 854 0 C854 184.8 854 369.6 854 560 C572.18 560 290.36 560 0 560 C0 375.2 0 190.4 0 0 Z " fill="#FEFEFE" transform="translate(0,0)"/>
<path d="M0 0 C1.43585953 0.00356506 1.43585953 0.00356506 2.90072632 0.00720215 C17.34357448 0.06319793 31.07605942 0.82925137 45.125 4.4375 C45.85332031 4.61361816 46.58164062 4.78973633 47.33203125 4.97119141 C51.63309267 6.01205613 55.88015122 7.1840583 60.125 8.4375 C61.01960938 8.68242188 61.91421875 8.92734375 62.8359375 9.1796875 C69.50147137 11.05108345 75.81619251 13.60290121 82.125 16.4375 C83.27718018 16.95425293 83.27718018 16.95425293 84.45263672 17.48144531 C106.46805917 27.44734398 125.5915224 39.74501769 143.125 56.4375 C143.68832031 56.97358887 144.25164062 57.50967773 144.83203125 58.06201172 C158.22552095 70.89508962 169.286141 84.7277169 179.125 100.4375 C179.69299316 101.33662109 179.69299316 101.33662109 180.27246094 102.25390625 C192.11119693 121.26981177 201.57071407 144.55316895 204.7265625 166.79296875 C205.08225032 169.1537595 205.58778549 171.37990285 206.1875 173.6875 C213.66969596 207.15117957 207.35497995 244.31510942 197.125 276.4375 C196.90360352 277.13294922 196.68220703 277.82839844 196.45410156 278.54492188 C190.79798103 295.85317362 181.88271271 312.765904 171.125 327.4375 C170.40828125 328.43652344 169.6915625 329.43554688 168.953125 330.46484375 C164.69522286 336.28642375 160.20386529 341.76352093 155.3125 347.0625 C153.18011386 349.37766209 151.1213264 351.74448197 149.0625 354.125 C145.36221931 358.28327221 141.39372615 361.87650331 137.125 365.4375 C135.81595703 366.57832031 135.81595703 366.57832031 134.48046875 367.7421875 C118.98670094 381.05811646 101.36453636 391.45867865 82.75 399.8125 C82.06188232 400.12203613 81.37376465 400.43157227 80.66479492 400.75048828 C31.97964687 421.93898367 -25.91674442 421.97246078 -75.09765625 402.80859375 C-107.3018512 389.9952343 -136.65771305 370.28951899 -158.875 343.4375 C-159.38353516 342.82487305 -159.89207031 342.21224609 -160.41601562 341.58105469 C-174.08466309 324.9721503 -184.75287335 307.34243011 -192.875 287.4375 C-193.49730985 285.96350536 -194.11970584 284.48954709 -194.7421875 283.015625 C-197.93795052 275.29387428 -200.57108088 267.54078478 -202.625 259.4375 C-202.81151123 258.70418457 -202.99802246 257.97086914 -203.19018555 257.21533203 C-203.80740491 254.63181626 -204.34949954 252.04133879 -204.875 249.4375 C-205.13611572 248.17115723 -205.39723145 246.90481445 -205.66625977 245.60009766 C-208.04126258 233.32844448 -208.39313098 221.28538402 -208.3125 208.8125 C-208.30912628 207.79903503 -208.30575256 206.78557007 -208.30227661 205.74139404 C-208.22943865 190.63310308 -207.68777668 176.13363292 -203.875 161.4375 C-203.6176709 160.42623047 -203.3603418 159.41496094 -203.09521484 158.37304688 C-199.95738898 146.32173674 -196.30750749 134.66379012 -190.875 123.4375 C-190.58012695 122.81504395 -190.28525391 122.19258789 -189.98144531 121.55126953 C-180.76869709 102.14721693 -169.50929267 84.30508441 -154.82421875 68.5390625 C-153.07972294 66.65822333 -151.44032432 64.73131969 -149.8125 62.75 C-147.12253242 59.58707109 -144.14246977 56.91413172 -140.9765625 54.234375 C-139.61127689 53.06703043 -138.27057229 51.87007807 -136.9609375 50.640625 C-114.76064392 29.89749355 -86.59593127 16.3524589 -57.875 7.4375 C-57.19147461 7.22319336 -56.50794922 7.00888672 -55.80371094 6.78808594 C-37.62829184 1.19054936 -18.9134349 -0.12460014 0 0 Z " fill="#D0352B" transform="translate(215.875,88.5625)"/>
<path d="M0 0 C1.05137146 -0.0071553 2.10274292 -0.01431061 3.18597412 -0.02168274 C4.34440826 -0.02437164 5.50284241 -0.02706055 6.69638062 -0.02983093 C8.52096802 -0.03968773 8.52096802 -0.03968773 10.38241577 -0.04974365 C14.42375939 -0.06951723 18.46506324 -0.08115029 22.50643921 -0.09111023 C23.89864497 -0.09515804 25.29085053 -0.09927497 26.68305588 -0.10346031 C33.22698115 -0.12251817 39.77089513 -0.13674525 46.31484282 -0.14507228 C53.86060304 -0.15483303 61.40606901 -0.18111928 68.9517256 -0.22157317 C74.78793856 -0.25178433 80.62406746 -0.26654606 86.46035707 -0.26985329 C89.9438643 -0.27219906 93.4270574 -0.28109631 96.9104805 -0.30631447 C100.80274998 -0.3340356 104.69463636 -0.32974874 108.58700562 -0.32279968 C109.73329437 -0.33560974 110.87958313 -0.3484198 112.06060791 -0.36161804 C119.70873292 -0.31190573 125.21823296 0.71886146 131.08847046 5.99873352 C131.54350952 6.5839679 131.99854858 7.16920227 132.46737671 7.77217102 C132.94046265 8.36256165 133.41354858 8.95295227 133.90097046 9.56123352 C137.20242722 14.19926621 136.63291971 19.67866749 136.02987671 25.14717102 C133.89434479 30.87260573 130.35806436 34.19966296 125.02987671 37.14717102 C124.08232513 37.68542007 124.08232513 37.68542007 123.1156311 38.23454285 C120.79865297 39.24834367 119.23788853 39.38938796 116.7203064 39.3742218 C115.87973694 39.37407074 115.03916748 39.37391968 114.17312622 39.37376404 C113.27507263 39.36344147 112.37701904 39.3531189 111.45175171 39.34248352 C110.52517761 39.33965363 109.59860352 39.33682373 108.64395142 39.33390808 C105.68912762 39.32272713 102.73460866 39.29762629 99.77987671 39.27217102 C97.77467276 39.26213853 95.76946405 39.25301315 93.76425171 39.24482727 C88.85258189 39.22449751 83.94156991 39.1853448 79.02987671 39.14717102 C79.02987671 45.74717102 79.02987671 52.34717102 79.02987671 59.14717102 C81.31925171 59.33279602 83.60862671 59.51842102 85.96737671 59.70967102 C105.35169025 61.78393576 123.69769794 68.47341931 141.02987671 77.14717102 C141.71759155 77.48361633 142.4053064 77.82006165 143.11386108 78.16670227 C164.07812524 88.47430326 184.31393731 104.03048932 199.02987671 122.14717102 C199.84972046 123.12943665 200.66956421 124.11170227 201.51425171 125.12373352 C214.99389625 141.54078399 225.94529869 160.30268166 232.23300171 180.65498352 C233.04666707 183.35744324 233.04666707 183.35744324 234.59237671 186.64717102 C236.67315446 191.71341251 237.89896391 196.79418379 239.02987671 202.14717102 C239.3121814 203.42978821 239.59448608 204.7124054 239.88534546 206.03388977 C246.60530923 240.36961245 242.08185944 275.68060529 230.02987671 308.14717102 C229.61995483 309.29185852 229.21003296 310.43654602 228.78768921 311.61592102 C222.5284447 327.88081916 212.97356078 342.68647506 202.02987671 356.14717102 C201.54406128 356.752547 201.05824585 357.35792297 200.55770874 357.98164368 C188.55502971 372.8476414 174.93146343 384.60756483 159.02987671 395.14717102 C158.45914429 395.53243958 157.88841187 395.91770813 157.30038452 396.31465149 C148.09631161 402.49452901 138.22994313 406.9102712 128.02987671 411.14717102 C127.24072876 411.48152161 126.45158081 411.81587219 125.63851929 412.16035461 C119.56334639 414.67764842 113.44360123 416.58268272 107.09237671 418.27217102 C106.18036499 418.52353821 105.26835327 418.7749054 104.32870483 419.03388977 C59.47293894 431.14336155 10.61214604 424.11876343 -29.97012329 402.14717102 C-35.82841239 398.76094591 -41.42797776 395.0240084 -46.97012329 391.14717102 C-48.01168579 390.43174133 -49.05324829 389.71631165 -50.12637329 388.97920227 C-66.98837146 376.89930305 -81.66706322 361.52430543 -92.97012329 344.14717102 C-93.60434204 343.1752179 -94.23856079 342.20326477 -94.89199829 341.20185852 C-105.0116586 325.23789826 -114.40736692 307.25408016 -118.36465454 288.66279602 C-118.90341547 286.13477913 -118.90341547 286.13477913 -119.94277954 283.80732727 C-125.11099494 270.42499005 -124.29191286 254.88631898 -124.34512329 240.77217102 C-124.35279724 239.91022125 -124.36047119 239.04827148 -124.36837769 238.16020203 C-124.43708048 228.48172492 -124.06763887 219.52046597 -121.69863892 210.09346008 C-120.97297505 207.1587042 -120.5016955 204.26606945 -120.09512329 201.27217102 C-115.07165552 170.43706396 -98.02773948 140.90878858 -76.98574829 118.31513977 C-75.06102718 116.24494555 -73.23264842 114.11763993 -71.40762329 111.95967102 C-51.01071824 88.68210967 -21.24910629 73.74652354 7.83309937 64.82246399 C9.61694346 64.27410738 11.39307147 63.70069503 13.16659546 63.11982727 C21.57601348 60.53132341 30.30836175 59.99964993 39.02987671 59.14717102 C39.02987671 52.54717102 39.02987671 45.94717102 39.02987671 39.14717102 C34.62128296 39.2167804 34.62128296 39.2167804 30.12362671 39.28779602 C27.25743331 39.31904662 24.39125935 39.34330304 21.5249939 39.36689758 C19.54248472 39.38693599 17.56003408 39.41417455 15.57772827 39.44892883 C12.7178803 39.49779056 9.8588179 39.52021775 6.99862671 39.53779602 C6.12121826 39.55844116 5.24380981 39.5790863 4.33981323 39.60035706 C-2.19413105 39.60270638 -7.54780387 38.2331133 -12.49710083 33.77027893 C-16.93966709 28.83308845 -18.4464862 23.74608642 -18.20840454 17.15498352 C-17.39705504 10.31836637 -13.85185074 6.7174698 -8.80996704 2.52998352 C-5.71010156 0.20014832 -3.83185371 0.01785883 0 0 Z " fill="#4885F5" transform="translate(589.9701232910156,84.85282897949219)"/>
<path d="M0 0 C1.05137146 -0.0071553 2.10274292 -0.01431061 3.18597412 -0.02168274 C4.34440826 -0.02437164 5.50284241 -0.02706055 6.69638062 -0.02983093 C8.52096802 -0.03968773 8.52096802 -0.03968773 10.38241577 -0.04974365 C14.42375939 -0.06951723 18.46506324 -0.08115029 22.50643921 -0.09111023 C23.89864497 -0.09515804 25.29085053 -0.09927497 26.68305588 -0.10346031 C33.22698115 -0.12251817 39.77089513 -0.13674525 46.31484282 -0.14507228 C53.86060304 -0.15483303 61.40606901 -0.18111928 68.9517256 -0.22157317 C74.78793856 -0.25178433 80.62406746 -0.26654606 86.46035707 -0.26985329 C89.9438643 -0.27219906 93.4270574 -0.28109631 96.9104805 -0.30631447 C100.80274998 -0.3340356 104.69463636 -0.32974874 108.58700562 -0.32279968 C109.73329437 -0.33560974 110.87958313 -0.3484198 112.06060791 -0.36161804 C119.70873292 -0.31190573 125.21823296 0.71886146 131.08847046 5.99873352 C131.54350952 6.5839679 131.99854858 7.16920227 132.46737671 7.77217102 C132.94046265 8.36256165 133.41354858 8.95295227 133.90097046 9.56123352 C137.20242722 14.19926621 136.63291971 19.67866749 136.02987671 25.14717102 C133.89434479 30.87260573 130.35806436 34.19966296 125.02987671 37.14717102 C124.08232513 37.68542007 124.08232513 37.68542007 123.1156311 38.23454285 C120.79865297 39.24834367 119.23788853 39.38938796 116.7203064 39.3742218 C115.87973694 39.37407074 115.03916748 39.37391968 114.17312622 39.37376404 C113.27507263 39.36344147 112.37701904 39.3531189 111.45175171 39.34248352 C110.52517761 39.33965363 109.59860352 39.33682373 108.64395142 39.33390808 C105.68912762 39.32272713 102.73460866 39.29762629 99.77987671 39.27217102 C97.77467276 39.26213853 95.76946405 39.25301315 93.76425171 39.24482727 C88.85258189 39.22449751 83.94156991 39.1853448 79.02987671 39.14717102 C79.02987671 45.74717102 79.02987671 52.34717102 79.02987671 59.14717102 C81.31925171 59.33279602 83.60862671 59.51842102 85.96737671 59.70967102 C105.35169025 61.78393576 123.69769794 68.47341931 141.02987671 77.14717102 C141.71759155 77.48361633 142.4053064 77.82006165 143.11386108 78.16670227 C164.07812524 88.47430326 184.31393731 104.03048932 199.02987671 122.14717102 C199.84972046 123.12943665 200.66956421 124.11170227 201.51425171 125.12373352 C214.99389625 141.54078399 225.94529869 160.30268166 232.23300171 180.65498352 C233.04666707 183.35744324 233.04666707 183.35744324 234.59237671 186.64717102 C236.67315446 191.71341251 237.89896391 196.79418379 239.02987671 202.14717102 C239.3121814 203.42978821 239.59448608 204.7124054 239.88534546 206.03388977 C246.60530923 240.36961245 242.08185944 275.68060529 230.02987671 308.14717102 C229.61995483 309.29185852 229.21003296 310.43654602 228.78768921 311.61592102 C222.5284447 327.88081916 212.97356078 342.68647506 202.02987671 356.14717102 C201.54406128 356.752547 201.05824585 357.35792297 200.55770874 357.98164368 C188.55502971 372.8476414 174.93146343 384.60756483 159.02987671 395.14717102 C158.45914429 395.53243958 157.88841187 395.91770813 157.30038452 396.31465149 C148.09631161 402.49452901 138.22994313 406.9102712 128.02987671 411.14717102 C127.24072876 411.48152161 126.45158081 411.81587219 125.63851929 412.16035461 C119.56334639 414.67764842 113.44360123 416.58268272 107.09237671 418.27217102 C106.18036499 418.52353821 105.26835327 418.7749054 104.32870483 419.03388977 C59.47293894 431.14336155 10.61214604 424.11876343 -29.97012329 402.14717102 C-35.82841239 398.76094591 -41.42797776 395.0240084 -46.97012329 391.14717102 C-48.01168579 390.43174133 -49.05324829 389.71631165 -50.12637329 388.97920227 C-66.98837146 376.89930305 -81.66706322 361.52430543 -92.97012329 344.14717102 C-93.60434204 343.1752179 -94.23856079 342.20326477 -94.89199829 341.20185852 C-105.0116586 325.23789826 -114.40736692 307.25408016 -118.36465454 288.66279602 C-118.90341547 286.13477913 -118.90341547 286.13477913 -119.94277954 283.80732727 C-125.11099494 270.42499005 -124.29191286 254.88631898 -124.34512329 240.77217102 C-124.35279724 239.91022125 -124.36047119 239.04827148 -124.36837769 238.16020203 C-124.43708048 228.48172492 -124.06763887 219.52046597 -121.69863892 210.09346008 C-120.97297505 207.1587042 -120.5016955 204.26606945 -120.09512329 201.27217102 C-115.07165552 170.43706396 -98.02773948 140.90878858 -76.98574829 118.31513977 C-75.06102718 116.24494555 -73.23264842 114.11763993 -71.40762329 111.95967102 C-51.01071824 88.68210967 -21.24910629 73.74652354 7.83309937 64.82246399 C9.61694346 64.27410738 11.39307147 63.70069503 13.16659546 63.11982727 C21.57601348 60.53132341 30.30836175 59.99964993 39.02987671 59.14717102 C39.02987671 52.54717102 39.02987671 45.94717102 39.02987671 39.14717102 C34.62128296 39.2167804 34.62128296 39.2167804 30.12362671 39.28779602 C27.25743331 39.31904662 24.39125935 39.34330304 21.5249939 39.36689758 C19.54248472 39.38693599 17.56003408 39.41417455 15.57772827 39.44892883 C12.7178803 39.49779056 9.8588179 39.52021775 6.99862671 39.53779602 C6.12121826 39.55844116 5.24380981 39.5790863 4.33981323 39.60035706 C-2.19413105 39.60270638 -7.54780387 38.2331133 -12.49710083 33.77027893 C-16.93966709 28.83308845 -18.4464862 23.74608642 -18.20840454 17.15498352 C-17.39705504 10.31836637 -13.85185074 6.7174698 -8.80996704 2.52998352 C-5.71010156 0.20014832 -3.83185371 0.01785883 0 0 Z M-50.34512329 145.77217102 C-54.6586881 150.63625541 -58.41207459 155.71290661 -61.97012329 161.14717102 C-62.5437561 161.98635071 -63.11738892 162.8255304 -63.70840454 163.69013977 C-78.3637497 185.68940512 -85.7803247 211.20200049 -85.38174438 237.52900696 C-85.34482083 240.04276227 -85.34073021 242.55504492 -85.34121704 245.06904602 C-85.17731682 283.09156971 -69.24835316 316.63996165 -43.26846313 343.78144836 C-42.22088061 344.8833996 -41.19537517 346.00631436 -40.17715454 347.13545227 C-16.556864 372.57735904 20.82593442 384.93082895 54.60800171 386.36592102 C63.36423922 386.6066739 71.91146668 385.98257816 80.59237671 384.83467102 C81.92994019 384.65835144 81.92994019 384.65835144 83.29452515 384.47846985 C113.26386669 380.09837837 140.63471635 364.02129247 162.02987671 343.14717102 C162.74272827 342.49619446 163.45557983 341.8452179 164.19003296 341.17451477 C174.34704524 331.66367425 181.49384881 319.3000979 188.02987671 307.14717102 C188.77237671 305.76851868 188.77237671 305.76851868 189.52987671 304.36201477 C191.87841624 299.83967823 193.80551962 295.35149664 195.30136108 290.47871399 C195.97377054 288.32673331 196.70418012 286.20499382 197.44784546 284.07685852 C208.48604936 250.89087913 206.47904926 215.05096752 192.21737671 183.20967102 C191.86554321 182.4233429 191.51370972 181.63701477 191.1512146 180.82685852 C188.49953053 174.9944791 185.59686989 169.47878781 182.02987671 164.14717102 C181.52198608 163.36728821 181.01409546 162.5874054 180.49081421 161.78388977 C175.5539562 154.44879504 169.88062932 147.75989256 164.02987671 141.14717102 C163.09595093 140.08369446 163.09595093 140.08369446 162.14315796 138.99873352 C137.29255182 112.52864968 101.20327588 98.45029598 65.49765015 97.00410461 C19.44740356 95.74254265 -18.87409175 112.12419594 -50.34512329 145.77217102 Z " fill="#020202" transform="translate(589.9701232910156,84.85282897949219)"/>
<path d="M0 0 C4.21592931 1.64393376 7.03022614 4.76355386 10.14550781 7.91845703 C10.75081329 8.52347046 11.35611877 9.12848389 11.97976685 9.75183105 C13.9756645 11.74911999 15.96438799 13.75339558 17.953125 15.7578125 C19.33702668 17.14544502 20.72137112 18.5326361 22.10614014 19.91940308 C25.7470322 23.567926 29.38187778 27.22241552 33.01550293 30.87817383 C36.72545688 34.60859789 40.44108927 38.33335643 44.15625 42.05859375 C51.44307344 49.36685747 58.72352265 56.68143616 66 64 C70.21592931 62.35606624 73.03022614 59.23644614 76.14550781 56.08154297 C76.75081329 55.47652954 77.35611877 54.87151611 77.97976685 54.24816895 C79.9756645 52.25088001 81.96438799 50.24660442 83.953125 48.2421875 C85.33702668 46.85455498 86.72137112 45.4673639 88.10614014 44.08059692 C91.7470322 40.432074 95.38187778 36.77758448 99.01550293 33.12182617 C102.72545688 29.39140211 106.44108927 25.66664357 110.15625 21.94140625 C117.44307344 14.63314253 124.72352265 7.31856384 132 0 C134.85779017 1.29719924 136.91008536 2.6636826 139.11621094 4.88916016 C139.98666046 5.75983627 139.98666046 5.75983627 140.87469482 6.64810181 C141.48838928 7.27211884 142.10208374 7.89613586 142.734375 8.5390625 C143.37240051 9.17991791 144.01042603 9.82077332 144.66778564 10.48104858 C146.69994069 12.52437821 148.72502218 14.57455982 150.75 16.625 C152.1284453 18.0134786 153.50734636 19.4015049 154.88671875 20.7890625 C158.26311894 24.18748697 161.63319288 27.59207254 165 31 C161.18469488 35.56930359 157.23344907 39.89399959 152.97875977 44.05541992 C152.41057022 44.61572403 151.84238068 45.17602814 151.25697327 45.75331116 C150.03690717 46.9563219 148.81578482 48.15826221 147.59369087 49.35921288 C144.99663416 51.91390819 142.40913235 54.47819178 139.8209753 57.04189777 C135.01369062 61.80354452 130.20251152 66.56109475 125.37524414 71.30249023 C122.00542811 74.613086 118.64780606 77.93561963 115.29804802 81.26650429 C114.02063982 82.53214622 112.73870219 83.79323322 111.4522419 85.04967308 C109.66170978 86.79941437 107.88711344 88.56392092 106.11547852 90.33276367 C105.57896667 90.84972809 105.04245483 91.3666925 104.48968506 91.89932251 C102.86082872 93.48783467 102.86082872 93.48783467 101 96 C101.5009497 100.61644115 104.73805614 103.13681988 107.89672852 106.23730469 C108.51134949 106.85236374 109.12597046 107.46742279 109.75921631 108.10112 C111.79208277 110.1318968 113.83536821 112.15184186 115.87890625 114.171875 C117.29060524 115.57797869 118.70164324 116.98474628 120.11204529 118.39215088 C123.82580321 122.09445495 127.54848218 125.78766169 131.27307129 129.47906494 C135.07222731 133.24753196 138.86290403 137.02450676 142.65429688 140.80078125 C150.0945761 148.20888676 157.54430466 155.60741212 165 163 C164.06322155 164.10333701 163.12492192 165.20538255 162.18600464 166.30690002 C161.66365675 166.92074334 161.14130886 167.53458666 160.60313225 168.16703129 C158.16907233 170.95005538 155.57173415 173.55219913 152.9453125 176.15234375 C152.39890106 176.69734024 151.85248962 177.24233673 151.28952026 177.80384827 C149.57037942 179.51746118 147.84776796 181.22753444 146.125 182.9375 C144.94768362 184.10979204 143.77059826 185.28231614 142.59375 186.45507812 C139.73182511 189.30606982 136.86678543 192.15389615 134 195 C129.78407069 193.35606624 126.96977386 190.23644614 123.85449219 187.08154297 C123.24918671 186.47652954 122.64388123 185.87151611 122.02023315 185.24816895 C120.0243355 183.25088001 118.03561201 181.24660442 116.046875 179.2421875 C114.66297332 177.85455498 113.27862888 176.4673639 111.89385986 175.08059692 C108.2529678 171.432074 104.61812222 167.77758448 100.98449707 164.12182617 C97.27454312 160.39140211 93.55891073 156.66664357 89.84375 152.94140625 C82.55692656 145.63314253 75.27647735 138.31856384 68 131 C63.74443702 132.65013765 60.90420204 135.82944222 57.76269531 139.01025391 C57.14763626 139.6250209 56.53257721 140.2397879 55.89888 140.8731842 C53.87051742 142.90293824 51.84932774 144.93968075 49.828125 146.9765625 C48.42180303 148.38661525 47.01503836 149.79622658 45.60784912 151.20541382 C41.90777382 154.91312042 38.21374433 158.62679424 34.52093506 162.34173584 C30.75065747 166.13248259 26.97470239 169.91756457 23.19921875 173.703125 C15.7939064 181.12987841 8.39496768 188.56294714 1 196 C-0.10542876 195.06013804 -1.20975526 194.11897955 -2.31362915 193.17729187 C-2.92872156 192.65332667 -3.54381397 192.12936148 -4.17754555 191.58951855 C-6.85648088 189.2529897 -9.38282288 186.77938221 -11.8984375 184.26953125 C-12.41886627 183.75243088 -12.93929504 183.23533051 -13.47549438 182.70256042 C-14.56064222 181.62242442 -15.64448707 180.54097787 -16.72705078 179.45825195 C-18.38687084 177.80064499 -20.05456861 176.15123509 -21.72265625 174.50195312 C-22.78173779 173.44580142 -23.84034896 172.38917778 -24.8984375 171.33203125 C-25.39628754 170.84136673 -25.89413757 170.35070221 -26.40707397 169.84516907 C-28.67832287 167.55865728 -29.96430802 166.10707595 -31 163 C-30.19598251 162.20708557 -29.39196503 161.41417114 -28.56358337 160.597229 C-21.00088607 153.13573817 -13.45131036 145.66119457 -5.91449642 138.17355728 C-2.03898587 134.3241786 1.84105403 130.47960367 5.73168945 126.64550781 C9.48377964 122.94760718 13.22364611 119.23774735 16.95522881 115.51915741 C18.38349166 114.10015777 19.81615939 112.68557805 21.25319099 111.27545929 C23.26002467 109.30474001 25.25084332 107.31910909 27.23852539 105.32910156 C27.84056793 104.7450354 28.44261047 104.16096924 29.06289673 103.5592041 C30.8856765 101.77250991 30.8856765 101.77250991 33 99 C32.54237751 94.3874838 29.25094769 91.85238651 26.10327148 88.76269531 C25.18134003 87.84010674 25.18134003 87.84010674 24.24078369 86.89888 C22.20791723 84.8681032 20.16463179 82.84815814 18.12109375 80.828125 C16.70939476 79.42202131 15.29835676 78.01525372 13.88795471 76.60784912 C10.17419679 72.90554505 6.45151782 69.21233831 2.72692871 65.52093506 C-1.07222731 61.75246804 -4.86290403 57.97549324 -8.65429688 54.19921875 C-16.0945761 46.79111324 -23.54430466 39.39258788 -31 32 C-30.06322155 30.89666299 -29.12492192 29.79461745 -28.18600464 28.69309998 C-27.66365675 28.07925666 -27.14130886 27.46541334 -26.60313225 26.83296871 C-24.16907233 24.04994462 -21.57173415 21.44780087 -18.9453125 18.84765625 C-18.39890106 18.30265976 -17.85248962 17.75766327 -17.28952026 17.19615173 C-15.57037942 15.48253882 -13.84776796 13.77246556 -12.125 12.0625 C-10.94768362 10.89020796 -9.77059826 9.71768386 -8.59375 8.54492188 C-5.73182511 5.69393018 -2.86678543 2.84610385 0 0 Z " fill="#FDFDFD" transform="translate(149,199)"/>
<path d="M0 0 C4.90287162 3.00472527 8.41440267 6.37281947 10.37109375 11.890625 C10.92303563 16.78318932 10.83763829 21.65883183 10.76171875 26.57421875 C10.75424819 27.99910179 10.74855911 29.42399518 10.74456787 30.84889221 C10.72937527 34.57930414 10.69015033 38.30908222 10.64575195 42.03924561 C10.60466027 45.8535505 10.58652738 49.66795891 10.56640625 53.48242188 C10.52364828 60.95211028 10.45547639 68.42127846 10.37109375 75.890625 C11.15734634 75.88174255 11.94359894 75.87286011 12.75367737 75.8637085 C20.18311503 75.78337902 27.6123405 75.72256797 35.04209995 75.68337631 C38.86134513 75.66254964 42.68022983 75.63432339 46.49926758 75.58886719 C50.18864902 75.54523175 53.87768492 75.52145092 57.56730461 75.51111603 C58.97107313 75.50375617 60.37482389 75.48938409 61.77844429 75.46770477 C70.87529416 75.3328587 76.32256103 75.63246923 83.3671875 81.57421875 C87.61739568 86.74588128 88.15738603 91.2122754 87.828125 97.828125 C87.00489307 103.34448255 84.99933177 106.38450483 80.87109375 110.203125 C75.75372102 113.65735159 71.95020201 114.19596261 65.78222656 114.21289062 C64.48389389 114.22778534 64.48389389 114.22778534 63.15933228 114.24298096 C60.2975953 114.27217492 57.43608014 114.2858204 54.57421875 114.296875 C52.58127844 114.30838307 50.58833817 114.31989847 48.59539795 114.3314209 C44.4158017 114.35242758 40.23628223 114.36412121 36.05664062 114.37109375 C30.71215476 114.38205347 25.36869053 114.43009045 20.02452469 114.48703766 C15.90656616 114.5243689 11.78885164 114.53470574 7.67073822 114.5377655 C5.70120414 114.54380331 3.73167359 114.55980922 1.76230621 114.58613586 C-1.00006248 114.62042378 -3.75996316 114.6164604 -6.52246094 114.60351562 C-7.73224106 114.63115997 -7.73224106 114.63115997 -8.96646118 114.65936279 C-15.30961957 114.56670323 -19.18554942 112.37663112 -23.62890625 107.890625 C-27.70171181 102.99584481 -28.212627 98.17342672 -28.16235352 92.05297852 C-28.17096909 91.19673889 -28.17958466 90.34049927 -28.1884613 89.45831299 C-28.21105078 86.64507284 -28.20439526 83.83283459 -28.1953125 81.01953125 C-28.20055134 79.05329596 -28.20682877 77.08706319 -28.21409607 75.12083435 C-28.22448744 71.00613554 -28.21995712 66.89178283 -28.20532227 62.77709961 C-28.18813978 57.51681748 -28.21162995 52.25762822 -28.24681187 46.99746799 C-28.26882408 42.93866301 -28.26733506 38.88011797 -28.25904655 34.8212719 C-28.25822907 32.88248433 -28.26505355 30.94367728 -28.27981758 29.00494576 C-28.29733371 26.28851237 -28.28266308 23.57402298 -28.26000977 20.85766602 C-28.27170197 20.06520981 -28.28339417 19.2727536 -28.29544067 18.45628357 C-28.19546226 12.53261242 -26.39006341 8.46857475 -22.62890625 3.890625 C-16.23120973 -1.92903511 -8.09453605 -3.41582205 0 0 Z " fill="#FDFDFE" transform="translate(657.62890625,231.109375)"/>
</svg>
